<svg width="37" height="31" viewBox="0 0 37 31" fill="none" xmlns="http://www.w3.org/2000/svg">
<path fill-rule="evenodd" clip-rule="evenodd" d="M16.1176 1.07308C15.7346 1.66351 11.9513 8.03949 7.71044 15.242L0 28.3383L2.02035 29.667C3.97527 30.9523 4.24904 30.9962 10.3962 30.9981L16.7513 31L18.0595 28.7871C19.3187 26.6576 19.3966 26.609 20.1246 27.498C20.5408 28.0059 21.7437 29.0017 22.7974 29.7109C24.632 30.9452 24.9741 31 30.8567 31C34.8291 31 37 30.8231 37 30.4988C37 30.2236 35.1942 26.9504 32.9867 23.2257C30.7792 19.5014 27.7109 14.2004 26.1683 11.4462C24.6253 8.69192 22.8994 5.63962 22.3326 4.66288C21.4752 3.18489 17.8651 0 17.0476 0C16.9192 0 16.5006 0.482646 16.1176 1.07308ZM19.1974 4.33475C19.1974 4.56034 17.1217 8.23789 14.5851 12.5068C12.0485 16.7762 8.86135 22.1474 7.50306 24.4423C6.14477 26.7377 4.91832 28.6106 4.77783 28.6049C4.63733 28.5992 4.05514 28.2234 3.48449 27.7703L2.44665 26.9462L8.42398 16.9308C11.7112 11.4223 14.9811 5.91814 15.6898 4.6996C16.9355 2.55822 17.0159 2.50814 18.0879 3.20445C18.698 3.60077 19.1974 4.10965 19.1974 4.33475ZM27.1292 16.2154C29.9911 21.3304 32.8467 26.3247 33.4756 27.3139C34.894 29.5444 34.6732 29.6575 29.2612 29.4705L25.2118 29.3308L23.2872 25.7968C22.2287 23.8533 21.1547 22.2437 20.9007 22.2198C20.4253 22.1755 19.4486 23.5199 17.1646 27.363L15.8529 29.5692H10.9746H6.0957L6.79673 28.4962C7.18213 27.9062 8.85943 25.0623 10.5237 22.1769C14.3816 15.489 19.6887 6.61874 20.3026 5.83182C20.9098 5.05395 20.7405 4.79641 27.1292 16.2154ZM22.0689 26.918C22.0608 27.1961 21.736 27.0062 21.3472 26.4974C20.9589 25.988 20.6476 25.3442 20.6563 25.0666C20.6645 24.7886 20.9892 24.9784 21.378 25.4872C21.7663 25.9966 22.0776 26.6404 22.0689 26.918Z" fill="#F0B19E"/>
</svg>
